<?xml version="1.0" standalone="no"?><!DOCTYPE svg PUBLIC "-//W3C//DTD SVG 1.1//EN" "http://www.w3.org/Graphics/SVG/1.1/DTD/svg11.dtd"><svg width="100%" height="100%" viewBox="0 0 595 72" version="1.1" xmlns="http://www.w3.org/2000/svg" xmlns:xlink="http://www.w3.org/1999/xlink" xml:space="preserve" style="fill-rule:evenodd;clip-rule:evenodd;stroke-linejoin:round;stroke-miterlimit:1.41421;"><g id="Tim Hoffmann Logo Vector"><path d="M22.985,70.018l0,-58.934l13.056,0l0,-9.102l-36.041,0l0,9.102l13.056,0l0,58.934l9.929,0Z" style="fill:#000;fill-rule:nonzero;"/><rect x="40.078" y="1.982" width="9.93" height="68.037" style="fill:#000;fill-rule:nonzero;"/><path d="M128.609,70.018l0,-68.036l-15.63,0l-20.503,52.13l-20.411,-52.13l-15.63,0l0,68.036l9.93,0l0,-57.463l0.184,0l22.985,57.463l5.976,0l22.894,-57.463l0.276,0l0,57.463l9.929,0Z" style="fill:#000;fill-rule:nonzero;"/><path d="M150.589,1.982l-2.759,0l-12.609,68.036l2.758,0l6.117,-33.007l38.064,0l-6.117,33.007l2.758,0l12.61,-68.036l-2.759,0l-6.032,32.547l-38.064,0l6.033,-32.547Z" style="fill:#000;fill-rule:nonzero;"/><path d="M187.895,36c0,20.411 15.814,35.214 35.305,35.214c19.492,0 35.306,-14.803 35.306,-35.214c0,-20.411 -15.814,-35.214 -35.306,-35.214c-19.491,0 -35.305,14.803 -35.305,35.214ZM190.653,36c0,-18.848 14.527,-32.731 32.547,-32.731c18.021,0 32.547,13.883 32.547,32.731c0,18.848 -14.526,32.731 -32.547,32.731c-18.02,0 -32.547,-13.883 -32.547,-32.731Z" style="fill:#000;fill-rule:nonzero;"/><path d="M261.175,1.982l0,68.036l2.758,0l0,-33.007l30.617,0l0,-2.482l-30.617,0l0,-30.065l30.617,0l0,-2.482l-33.375,0Z" style="fill:#000;fill-rule:nonzero;"/><path d="M297.759,1.982l0,68.036l2.758,0l0,-33.007l30.617,0l0,-2.482l-30.617,0l0,-30.065l30.617,0l0,-2.482l-33.375,0Z" style="fill:#000;fill-rule:nonzero;"/><path d="M338.757,1.982l-4.414,0l0,68.036l2.759,0l0,-65.278l0.184,0l32.087,65.278l1.563,0l31.996,-65.278l0.183,0l-0.091,0l0.091,0l0,65.278l2.759,0l0,-68.036l-4.322,0l-31.351,63.623l-31.444,-63.623Z" style="fill:#000;fill-rule:nonzero;"/><path d="M419.565,46.297l35.581,0l10.205,23.721l2.943,0l-29.146,-68.036l-3.586,0l-29.145,68.036l2.942,0l10.206,-23.721ZM437.309,4.556l16.642,39.259l-33.191,0l16.549,-39.259Z" style="fill:#000;fill-rule:nonzero;"/><path d="M472.882,1.982l-4.137,0l0,68.036l2.758,0l0,-65.278l0.184,0l47.258,65.278l3.494,0l0,-68.036l-2.759,0l0,64.359l-0.184,0l-46.614,-64.359Z" style="fill:#000;fill-rule:nonzero;"/><path d="M530.705,1.982l-4.137,0l0,68.036l2.758,0l0,-65.278l0.184,0l47.258,65.278l3.493,0l0,-68.036l-2.758,0l0,64.359l-0.184,0l-46.614,-64.359Z" style="fill:#000;fill-rule:nonzero;"/><rect x="582.772" y="57.79" width="12.228" height="12.228" style="fill:#000;fill-rule:nonzero;"/></g></svg>